<svg xmlns="http://www.w3.org/2000/svg" viewBox="0 0 24 24"><defs><style>.cls-1{fill:#0e1317;}</style></defs><title>ic-ecommerce-delivery</title><g id="Layer-60" data-name="Layer"><g id="Vrstva_176" data-name="Vrstva 176"><path class="cls-1" d="M19.86,7.48a1.21,1.21,0,0,0-1-.48H17V6a3,3,0,0,0-3-3H4A3,3,0,0,0,1,6V16a3,3,0,0,0,3,3h.18a3,3,0,0,0,5.64,0h3.36a3,3,0,0,0,5.65,0A1,1,0,0,0,19,19h2.8A1.2,1.2,0,0,0,23,17.8V12.07a1.16,1.16,0,0,0-.24-.72ZM7,19a1,1,0,1,1,1-1A1,1,0,0,1,7,19Zm9,0a1,1,0,1,1,1-1A1,1,0,0,1,16,19Zm5-2H19a1,1,0,0,0-.17,0,3,3,0,0,0-5.65,0H9.82a3,3,0,0,0-5.64,0H4a1,1,0,0,1-1-1V6A1,1,0,0,1,4,5H14a1,1,0,0,1,1,1v7a1,1,0,0,0,2,0V9h1.5L21,12.33Z"/></g></g></svg>