<svg xmlns="http://www.w3.org/2000/svg" viewBox="0 0 24 24"><defs><style>.cls-1,.cls-2{fill:#0e1317;}.cls-1{fill-rule:evenodd;}</style></defs><title>ic-editor-color</title><g id="Layer-53" data-name="Layer"><g id="Vrstva_15" data-name="Vrstva 15"><path class="cls-1" d="M9,2.29l9.89,9.9L11.11,20a3,3,0,0,1-4.25,0L1.21,14.31a3,3,0,0,1,0-4.25ZM9,5.11,2.62,11.48a1,1,0,0,0,0,1.41l5.66,5.66a1,1,0,0,0,1.41,0l6.37-6.36Z"/><path class="cls-2" d="M6.86,1.58a1,1,0,0,1,1.42,0l9.9,9.9a1,1,0,0,1,0,1.41,1,1,0,0,1-1.42,0L6.86,3A1,1,0,0,1,6.86,1.58Z"/><path class="cls-2" d="M1,12H18L9,20.5Z"/><path class="cls-1" d="M22.5,19.6a3.14,3.14,0,0,1-3,3.27,3.14,3.14,0,0,1-3-3.27,3.74,3.74,0,0,1,.33-1.4,11.19,11.19,0,0,1,.6-1.2c.43-.75.89-1.39,1-1.59a1.29,1.29,0,0,1,2.1,0c.13.2.59.84,1,1.59l-.75.43.75-.43a11.19,11.19,0,0,1,.6,1.2A3.74,3.74,0,0,1,22.5,19.6Zm-3,1.27a1.16,1.16,0,0,0,1-1.27,2,2,0,0,0-.18-.64,8,8,0,0,0-.49-1c-.11-.19-.22-.38-.33-.55-.11.17-.22.36-.33.55a8,8,0,0,0-.49,1,2,2,0,0,0-.18.64A1.16,1.16,0,0,0,19.5,20.87Z"/></g></g></svg>