<svg xmlns="http://www.w3.org/2000/svg" viewBox="0 0 24 24"><defs><style>.cls-1{fill:#0e1317;}</style></defs><title>ic-ecommerce-card</title><g id="Layer-42" data-name="Layer"><path class="cls-1" d="M20,4H4A3,3,0,0,0,1,7V17a3,3,0,0,0,3,3H20a3,3,0,0,0,3-3V7A3,3,0,0,0,20,4ZM4,6H20a1,1,0,0,1,1,1V8H3V7A1,1,0,0,1,4,6ZM20,18H4a1,1,0,0,1-1-1V10H21v7A1,1,0,0,1,20,18Z"/></g><g id="Layer-43" data-name="Layer"><path class="cls-1" d="M5,14H9a1,1,0,0,0,0-2H5a1,1,0,1,0,0,2Z"/></g><g id="Layer-44" data-name="Layer"><path class="cls-1" d="M12,15H5a1,1,0,1,0,0,2h7a1,1,0,0,0,0-2Z"/></g></svg>