<svg xmlns="http://www.w3.org/2000/svg" viewBox="0 0 24 24"><defs><style>.cls-1{fill:#0e1317;}</style></defs><title>ic-ecommerce-sign</title><g id="Layer-38" data-name="Layer"><path class="cls-1" d="M20,11.14H18.16a1,1,0,0,0-.11-.25l-3.7-5.18a3,3,0,1,0-4.88-.25s0,0-.05,0L5.58,10.89a1,1,0,0,0-.11.25H4a3,3,0,0,0-3,3v6a3,3,0,0,0,3,3H20a3,3,0,0,0,3-3v-6A3,3,0,0,0,20,11.14ZM12,2.86a1,1,0,1,1-1,1A1,1,0,0,1,12,2.86ZM11,6.69a3,3,0,0,0,1,.17,2.84,2.84,0,0,0,.66-.08l3.11,4.36H7.86ZM21,20.14a1,1,0,0,1-1,1H4a1,1,0,0,1-1-1v-6a1,1,0,0,1,1-1H20a1,1,0,0,1,1,1Z"/></g></svg>