<svg xmlns="http://www.w3.org/2000/svg" viewBox="0 0 24 24"><defs><style>.cls-1{fill:#0e1317;fill-rule:evenodd;}</style></defs><title>ic-security-locked</title><g id="Layer-135" data-name="Layer"><g id="Vrstva_300" data-name="Vrstva 300"><path class="cls-1" d="M4,23H20a3,3,0,0,0,3-3V10a3,3,0,0,0-3-3H18V4a3,3,0,0,0-3-3H9A3,3,0,0,0,6,4V7H4a3,3,0,0,0-3,3V20A3,3,0,0,0,4,23ZM8,4A1,1,0,0,1,9,3h6a1,1,0,0,1,1,1V7H8ZM3,10A1,1,0,0,1,4,9H20a1,1,0,0,1,1,1V20a1,1,0,0,1-1,1H4a1,1,0,0,1-1-1Z"/><path class="cls-1" d="M11.94,10.47A3,3,0,0,0,11,16.3v2.17a1,1,0,0,0,2,0v-2h0v-.2a3,3,0,0,0-1.06-5.79Zm0,2a1,1,0,1,1-1,1A1,1,0,0,1,11.94,12.47Z"/></g></g></svg>