<?xml version="1.0"?>
<svg xmlns="http://www.w3.org/2000/svg" id="Capa_1" enable-background="new 0 0 512 512" height="512px" viewBox="0 0 512 512" width="512px"><g><g><path d="m166 301c74.443 0 135-67.295 135-150s-60.557-151-135-151-135 68.295-135 151 60.557 150 135 150z" data-original="#000000" class="active-path" data-old_color="#000000" fill="#40C15A"/><path d="m196 361c4.746 0 9.199-2.241 12.026-6.035 2.827-3.809 3.706-8.716 2.344-13.257l-4.828-16.152c-12.695 3.426-25.891 5.444-39.542 5.444s-26.847-2.018-39.542-5.444l-4.828 16.152c-1.362 4.541-.483 9.448 2.344 13.257 2.827 3.794 7.28 6.035 12.026 6.035h15v23.789c0 17.681 6.885 35.307 19.395 47.816 6.841 6.841 10.605 15.938 10.605 25.605v38.79c0 8.291 6.709 15 15 15s15-6.709 15-15v-38.789c0-17.681-6.885-35.307-19.395-47.816-6.84-6.841-10.605-15.938-10.605-25.606v-23.789z" data-original="#000000" class="active-path" data-old_color="#000000" fill="#40C15A"/><path d="m261.782 297.287c23.163 20.756 52.209 33.713 84.218 33.713 74.443 0 135-67.295 135-150s-60.557-151-135-151c-17.406 0-33.931 3.977-49.222 10.673 21.368 30.346 34.222 69.187 34.222 110.327 0 60.282-27.396 113.602-69.218 146.287z" data-original="#000000" class="active-path" data-old_color="#000000" fill="#40C15A"/><path d="m376 391c4.746 0 9.199-2.241 12.026-6.035 2.827-3.809 3.706-8.716 2.344-13.257l-4.828-16.152c-12.695 3.426-25.891 5.444-39.542 5.444-13.486 0-26.569-2.428-39.386-5.962l-4.984 16.67c-1.362 4.541-.483 9.448 2.344 13.257 2.827 3.794 7.28 6.035 12.026 6.035h15v23.789c0 17.681 6.885 35.307 19.395 47.816 6.841 6.841 10.605 15.938 10.605 25.605v8.79c0 8.291 6.709 15 15 15s15-6.709 15-15v-8.789c0-17.681-6.885-34.307-19.395-46.816-6.84-6.841-10.605-16.938-10.605-26.606v-23.789z" data-original="#000000" class="active-path" data-old_color="#000000" fill="#40C15A"/></g></g> </svg>
