<svg xmlns="http://www.w3.org/2000/svg" viewBox="0 0 24 24"><defs><style>.cls-1{fill:#0e1317;}</style></defs><title>ic-ecommerce-badge</title><g id="Layer-37" data-name="Layer"><path class="cls-1" d="M21.27,9.52l.35-2.2A1.19,1.19,0,0,0,20.86,6l-2.07-.8L18,3.14a1.19,1.19,0,0,0-1.31-.76l-2.2.35-1.72-1.4a1.2,1.2,0,0,0-1.52,0L9.52,2.73l-2.2-.35A1.19,1.19,0,0,0,6,3.14l-.8,2.07L3.14,6a1.19,1.19,0,0,0-.76,1.31l.35,2.2-1.4,1.72a1.2,1.2,0,0,0,0,1.52l1.4,1.72-.35,2.2A1.19,1.19,0,0,0,3.14,18l2.07.8L6,20.86a1.19,1.19,0,0,0,1.31.76l2.2-.35,1.72,1.4a1.2,1.2,0,0,0,1.52,0l1.72-1.4,2.2.35A1.19,1.19,0,0,0,18,20.86l.8-2.07,2.07-.8a1.19,1.19,0,0,0,.76-1.31l-.35-2.2,1.4-1.72a1.2,1.2,0,0,0,0-1.52Zm-1.73,6.84-1.8.68a1.27,1.27,0,0,0-.7.7l-.68,1.8-1.91-.3a1.2,1.2,0,0,0-.95.25L12,20.71l-1.5-1.22a1.2,1.2,0,0,0-.95-.25l-1.91.3L7,17.74a1.27,1.27,0,0,0-.7-.7l-1.8-.68.3-1.91a1.2,1.2,0,0,0-.25-.95L3.29,12l1.22-1.5a1.2,1.2,0,0,0,.25-.95l-.3-1.91L6.26,7a1.27,1.27,0,0,0,.7-.7l.68-1.8,1.91.3a1.2,1.2,0,0,0,.95-.25L12,3.29l1.5,1.22a1.2,1.2,0,0,0,.95.25l1.91-.3L17,6.26a1.27,1.27,0,0,0,.7.7l1.8.68-.3,1.91a1.2,1.2,0,0,0,.25.95L20.71,12l-1.22,1.5a1.2,1.2,0,0,0-.25.95Z"/></g></svg>