<?xml version="1.0"?>
<svg xmlns="http://www.w3.org/2000/svg" xmlns:xlink="http://www.w3.org/1999/xlink" version="1.1" id="Layer_1" x="0px" y="0px" viewBox="0 0 512 512" style="enable-background:new 0 0 512 512;" xml:space="preserve" width="512px" height="512px"><g><g>
	<g>
		<path d="M222.518,348.405c-22.505-14.134-43.781-36.476-57.677-59.943c-2.123-3.586-7.039-4.229-9.987-1.282L14.468,427.566    c-19.29,19.29-19.29,50.677,0,69.967C24.113,507.178,36.782,512,49.451,512c12.669,0,25.339-4.823,34.984-14.468L223.66,358.306    C226.56,355.407,225.991,350.585,222.518,348.405z" data-original="#000000" class="active-path" data-old_color="#000000" fill="#2E3B49"/>
	</g>
</g><g>
	<g>
		<path d="M460.938,51.063c-68.081-68.083-178.862-68.085-246.944,0c-68.083,68.083-68.083,178.862,0,246.944    c34.041,34.041,78.757,51.062,123.472,51.062c44.716,0,89.431-17.021,123.473-51.062    C529.02,229.924,529.02,119.146,460.938,51.063z M415.201,117.286c-2.943,2.943-6.801,4.416-10.658,4.416    c-3.857,0-7.716-1.471-10.658-4.416c-14.826-14.826-34.538-22.992-55.505-22.992c-20.968,0-40.68,8.166-55.506,22.992    c-5.886,5.886-15.43,5.888-21.317,0c-5.887-5.886-5.887-15.429,0-21.317c20.52-20.521,47.803-31.822,76.823-31.822    c29.019,0,56.302,11.301,76.822,31.822C421.087,101.856,421.087,111.4,415.201,117.286z" data-original="#000000" class="active-path" data-old_color="#000000" fill="#2E3B49"/>
	</g>
</g></g> </svg>
