<svg xmlns="http://www.w3.org/2000/svg" viewBox="0 0 24 24"><defs><style>.cls-1{fill:#0e1317;fill-rule:evenodd;}</style></defs><title>ic-actions-trash</title><g id="Layer-15" data-name="Layer"><g id="Vrstva_104" data-name="Vrstva 104"><path class="cls-1" d="M8.26,17.34a.9.9,0,0,0,1.22.2l2.32-2.33,2.32,2.33a.9.9,0,0,0,1.22-.2.9.9,0,0,0,.2-1.22L13.21,13.8l2.33-2.32a.9.9,0,0,0-.2-1.22.9.9,0,0,0-1.22-.2L11.8,12.39,9.48,10.06a.9.9,0,0,0-1.22.2.9.9,0,0,0-.2,1.22l2.33,2.32L8.06,16.12A.9.9,0,0,0,8.26,17.34Z"/><path class="cls-1" d="M20.8,1H3.2A1.2,1.2,0,0,0,2,2.2V5.8A1.2,1.2,0,0,0,3.2,7H4V20a3,3,0,0,0,3,3H17a3,3,0,0,0,3-3V7h.8A1.2,1.2,0,0,0,22,5.8V2.2A1.2,1.2,0,0,0,20.8,1ZM18,20a1,1,0,0,1-1,1H7a1,1,0,0,1-1-1V7H18ZM20,5H4V3H20Z"/></g></g></svg>