<svg xmlns="http://www.w3.org/2000/svg" viewBox="0 0 24 24"><defs><style>.cls-1{fill:#0e1317;}</style></defs><title>ic-editor-left</title><g id="Layer-49" data-name="Layer"><path class="cls-1" d="M2,3H17a1,1,0,0,0,0-2H2A1,1,0,0,0,2,3Z"/><path class="cls-1" d="M2,7H9A1,1,0,0,0,9,5H2A1,1,0,0,0,2,7Z"/><path class="cls-1" d="M2,11H13a1,1,0,0,0,0-2H2a1,1,0,0,0,0,2Z"/><path class="cls-1" d="M2,15H17a1,1,0,0,0,0-2H2a1,1,0,0,0,0,2Z"/><path class="cls-1" d="M2,19h9a1,1,0,0,0,0-2H2a1,1,0,0,0,0,2Z"/><path class="cls-1" d="M22,21H2a1,1,0,0,0,0,2H22a1,1,0,0,0,0-2Z"/></g></svg>