<svg xmlns="http://www.w3.org/2000/svg" viewBox="0 0 24 24"><defs><style>.cls-1{fill:#0e1317;fill-rule:evenodd;}</style></defs><title>ic-actions-bookmarks</title><g id="Layer-18" data-name="Layer"><g id="Vrstva_103" data-name="Vrstva 103"><path class="cls-1" d="M15.5,3.6H5.5a3,3,0,0,0-3,3V22.2a1.2,1.2,0,0,0,1.93.95l6.07-4.68,6.07,4.68a1.2,1.2,0,0,0,1.93-.95V6.6A3,3,0,0,0,15.5,3.6Zm1,17L11.23,16.5a1.2,1.2,0,0,0-1.46,0L4.5,20.57V6.6a1,1,0,0,1,1-1h10a1,1,0,0,1,1,1Z"/><path class="cls-1" d="M18.5.6H6.5a1,1,0,0,0,0,2h12a1,1,0,0,1,1,1v16a1,1,0,0,0,2,0V3.6A3,3,0,0,0,18.5.6Z"/></g></g></svg>