<svg xmlns="http://www.w3.org/2000/svg" viewBox="0 0 24 24"><defs><style>.cls-1{fill:#0e1317;}</style></defs><title>ic-devices-camera</title><g id="Layer-68" data-name="Layer"><g id="Vrstva_155" data-name="Vrstva 155"><path class="cls-1" d="M20,5.5H4a3,3,0,0,0-3,3v10a3,3,0,0,0,3,3H20a3,3,0,0,0,3-3V8.5A3,3,0,0,0,20,5.5Zm1,13a1,1,0,0,1-1,1H4a1,1,0,0,1-1-1V8.5a1,1,0,0,1,1-1H20a1,1,0,0,1,1,1Z"/><circle class="cls-1" cx="18.29" cy="10.13" r="1"/><path class="cls-1" d="M12.29,9.13a4,4,0,1,0,4,4A4,4,0,0,0,12.29,9.13Zm0,6a2,2,0,1,1,2-2A2,2,0,0,1,12.29,15.13Z"/><path class="cls-1" d="M4.29,2.5a1,1,0,0,0,0,2h4a1,1,0,0,0,0-2Z"/></g></g></svg>