<svg xmlns="http://www.w3.org/2000/svg" viewBox="0 0 24 24"><defs><style>.cls-1{fill:#0e1317;}</style></defs><title>ic-ecommerce-cart</title><g id="Layer-61" data-name="Layer"><g id="Vrstva_165" data-name="Vrstva 165"><path class="cls-1" d="M21.79,6h-15L6,2.91A1.21,1.21,0,0,0,4.85,2H2A1,1,0,0,0,2,4H4.23L5,7.22,7,17a1.19,1.19,0,0,0,1.17,1H20.83A1.19,1.19,0,0,0,22,16.92l1-9.6A1.2,1.2,0,0,0,21.79,6ZM20.11,16H8.83L7.23,8H20.91Z"/><circle class="cls-1" cx="10.51" cy="20.5" r="1.5"/><circle class="cls-1" cx="17.51" cy="20.5" r="1.5"/></g></g></svg>