<svg xmlns="http://www.w3.org/2000/svg" viewBox="0 0 24 24"><defs><style>.cls-1{fill:#0e1317;fill-rule:evenodd;}</style></defs><title>ic-media-mixer</title><g id="Layer-178" data-name="Layer"><g id="Vrstva_209" data-name="Vrstva 209"><path class="cls-1" d="M3,5.72h8l.09,0a3,3,0,0,0,5.82,0l.09,0h4a1,1,0,1,0,0-2H17a1.28,1.28,0,0,0-.27,0,3,3,0,0,0-5.46,0,1.28,1.28,0,0,0-.27,0H3a1,1,0,0,0,0,2ZM14,4a1,1,0,1,1-1,1A1,1,0,0,1,14,4Z"/><path class="cls-1" d="M3,12.72H5l.09,0a3,3,0,0,0,5.81,0H21a1,1,0,0,0,0-2H10.7a3,3,0,0,0-5.43,0,1.28,1.28,0,0,0-.27,0H3a1,1,0,0,0,0,2ZM8,11a1,1,0,1,1-1,1A1,1,0,0,1,8,11Z"/><path class="cls-1" d="M3,19.72h9.1a3,3,0,0,0,5.8,0H21a1,1,0,0,0,0-2H17.7a3,3,0,0,0-5.4,0H3a1,1,0,0,0,0,2ZM15,18a1,1,0,1,1-1,1A1,1,0,0,1,15,18Z"/></g></g></svg>