<svg xmlns="http://www.w3.org/2000/svg" viewBox="0 0 24 24"><defs><style>.cls-1{fill:#0e1317;}</style></defs><title>ic-editor-scale</title><g id="Layer-48" data-name="Layer"><path class="cls-1" d="M21.8,1H20.2A1.19,1.19,0,0,0,19,2H5A1.19,1.19,0,0,0,3.8,1H2.2A1.2,1.2,0,0,0,1,2.2V3.8A1.19,1.19,0,0,0,2,5V19A1.19,1.19,0,0,0,1,20.2v1.6A1.2,1.2,0,0,0,2.2,23H3.8A1.19,1.19,0,0,0,5,22H19a1.19,1.19,0,0,0,1.16,1h1.6A1.2,1.2,0,0,0,23,21.8V20.2A1.19,1.19,0,0,0,22,19V5A1.19,1.19,0,0,0,23,3.8V2.2A1.2,1.2,0,0,0,21.8,1ZM5,20a1.17,1.17,0,0,0-1-1V5A1.17,1.17,0,0,0,5,4H19a1.17,1.17,0,0,0,1,1V19a1.17,1.17,0,0,0-1,1Z"/><path class="cls-1" d="M13.41,5.78a1.21,1.21,0,0,0-2.22,0L6.76,16.42a1,1,0,0,0,1.85.76L9.52,15H15v-.2l1,2.38a1,1,0,0,0,1.85-.76ZM10.35,13l1.82-4.37a.14.14,0,0,1,.26,0L14.25,13Z"/></g></svg>