<svg xmlns="http://www.w3.org/2000/svg" viewBox="0 0 24 24"><defs><style>.cls-1{fill:#0e1317;}</style></defs><title>ic-contact-map-pin</title><g id="Layer-77" data-name="Layer"><g id="Vrstva_146" data-name="Vrstva 146"><path class="cls-1" d="M7.2,17c1.61,2.56,3.34,4.8,3.86,5.46a1.19,1.19,0,0,0,1.88,0c.52-.66,2.25-2.9,3.86-5.46a31.57,31.57,0,0,0,2.18-4,9.56,9.56,0,0,0,1-3.73,8.14,8.14,0,0,0-8-8.27A8.14,8.14,0,0,0,4,9.33a9.56,9.56,0,0,0,1,3.73A31.57,31.57,0,0,0,7.2,17Zm4.8-14a6.14,6.14,0,0,1,6,6.27,7.78,7.78,0,0,1-.84,2.91A30,30,0,0,1,15.11,16C14,17.76,12.76,19.42,12,20.43c-.76-1-2-2.67-3.11-4.48a30,30,0,0,1-2.05-3.71A7.78,7.78,0,0,1,6,9.33,6.14,6.14,0,0,1,12,3.06Z"/><circle class="cls-1" cx="12" cy="9.06" r="2"/></g></g></svg>