<?xml version="1.0"?>
<svg xmlns="http://www.w3.org/2000/svg" xmlns:xlink="http://www.w3.org/1999/xlink" version="1.1" id="Capa_1" x="0px" y="0px" viewBox="0 0 511.999 511.999" style="enable-background:new 0 0 511.999 511.999;" xml:space="preserve" width="512px" height="512px" class=""><g><circle style="fill:#40C15A" cx="255.999" cy="255.999" r="255.999" data-original="#34ABE0" class="" data-old_color="#34ABE0"/><path style="fill:#71D184" d="M369.458,90.342c0,64.052-51.921,115.983-115.973,115.983S137.512,154.394,137.512,90.342  c0-27.711,9.718-53.154,25.955-73.101C192.17,6.102,223.372,0,256.003,0c29.884,0,58.566,5.12,85.232,14.535  C358.831,34.858,369.458,61.356,369.458,90.342z" data-original="#78CAEF" class="" data-old_color="#78CAEF"/><path style="fill:#E5BFA3;" d="M415.821,170.63l-54.322,137.597l-22.742-8.977l-8.667-3.43l54.306-137.597  c3.43-8.667,13.241-12.932,21.924-9.501c1.823,0.726,3.461,1.715,4.851,2.951C416.44,156.216,418.526,163.771,415.821,170.63z" data-original="#E5BFA3" class=""/><path style="fill:#F9D6B9;" d="M415.821,170.63l-54.322,137.597l-22.742-8.977l54.106-137.103  c2.966-7.478,10.676-11.68,18.309-10.475C416.44,156.216,418.526,163.771,415.821,170.63z" data-original="#F9D6B9" class=""/><g>
	<polygon style="fill:#2E3B49" points="361.505,308.221 330.087,295.819 293.923,353.975 320.71,410.472  " data-original="#5C5E70" class="" data-old_color="#5C5E70"/>
	<path style="fill:#2E3B49" d="M320.713,389.245v114.5c-20.668,5.392-42.35,8.255-64.71,8.255c-24.022,0-47.261-3.302-69.298-9.488   V389.245c0-1.902,0.146-3.772,0.428-5.59c2.132-13.96,12.142-25.318,25.36-29.393c0.324-0.104,0.658-0.199,0.993-0.293   c3.135-0.888,6.426-1.348,9.843-1.348h60.761c3.417,0,6.698,0.46,9.832,1.348C309.377,358.263,320.713,372.432,320.713,389.245z" data-original="#5C5E70" class="" data-old_color="#5C5E70"/>
</g><path style="fill:#E5BFA3;" d="M90.701,170.63l54.322,137.597l22.742-8.977l8.667-3.43l-54.306-137.597  c-3.429-8.667-13.241-12.932-21.924-9.501c-1.823,0.726-3.461,1.715-4.851,2.951C90.084,156.216,87.998,163.771,90.701,170.63z" data-original="#E5BFA3" class=""/><path style="fill:#F9D6B9;" d="M99.372,167.198l54.322,137.597l22.742-8.977L122.33,158.715  c-2.966-7.478-10.676-11.68-18.309-10.475C98.754,152.783,96.669,160.338,99.372,167.198z" data-original="#F9D6B9" class=""/><polygon style="fill:#2E3B49" points="212.598,353.97 212.493,354.262 195.503,404.512 189.966,420.885 186.705,412.714   146.915,313 145.015,308.224 176.434,295.821 " data-original="#5C5E70" class="" data-old_color="#5C5E70"/><path style="fill:#E5BFA3;" d="M134.653,164.624c0,14.556-11.793,26.349-26.349,26.349c-1.533,0-3.048-0.133-4.505-0.397  c-12.399-2.12-21.826-12.928-21.826-25.952c0-14.538,11.793-26.33,26.33-26.33c8.537,0,16.128,4.051,20.917,10.354  C132.627,153.078,134.653,158.605,134.653,164.624z" data-original="#E5BFA3" class=""/><path style="fill:#F9D6B9;" d="M134.653,164.624c0,14.556-11.793,26.349-26.349,26.349c-1.533,0-3.048-0.133-4.505-0.397  c-3.407-4.429-5.432-9.976-5.432-15.995c0-14.556,11.793-26.33,26.33-26.33c1.553,0,3.067,0.133,4.524,0.397  C132.627,153.078,134.653,158.605,134.653,164.624z" data-original="#F9D6B9" class=""/><g>
	<polyline style="fill:#252F3A" points="180.512,303.669 148.481,316.9 145.019,308.221 176.437,295.819  " data-original="#494B5B" class="" data-old_color="#494B5B"/>
	<path style="fill:#252F3A" d="M330.087,295.819l-28.504,44.815c-4.765,7.492-13.029,12.026-21.907,12.018   c-22.546-0.019-63.909-0.028-63.909-0.028c-0.765,0-1.53,0.018-2.277,0.053v2.956c0,22.167,17.605,40.753,39.772,40.993   c18.387,0.2,33.995-12.002,38.985-28.74c9.725-4.533,17.66-12.179,22.549-21.73l23.756-46.41L330.087,295.819z" data-original="#494B5B" class="" data-old_color="#494B5B"/>
</g><g>
	<path style="fill:#E5BFA3;" d="M283.247,324.678v31.733c0,16.315-13.226,29.541-29.541,29.541l0,0   c-16.315,0-29.541-13.226-29.541-29.541v-31.733H283.247z" data-original="#E5BFA3" class=""/>
	<circle style="fill:#E5BFA3;" cx="189.931" cy="272.77" r="18.259" data-original="#E5BFA3" class=""/>
	<circle style="fill:#E5BFA3;" cx="317.481" cy="272.77" r="18.259" data-original="#E5BFA3" class=""/>
</g><path style="fill:#F9D6B9;" d="M319.481,220.648l-131.549-7.003v73.379c0,36.327,29.448,65.775,65.775,65.775l0,0  c36.327,0,65.775-29.448,65.775-65.775v-66.376H319.481z" data-original="#F9D6B9" class=""/><g>
	<path style="fill:#E5BFA3;" d="M253.706,292.983L253.706,292.983c-3.675,0-6.653-2.979-6.653-6.653v-52.175h13.307v52.175   C260.359,290.004,257.38,292.983,253.706,292.983z" data-original="#E5BFA3" class=""/>
	<path style="fill:#E5BFA3;" d="M214.178,287.023v-71.982l-26.247-1.397v73.379c0,36.327,29.448,65.775,65.775,65.775l0,0   c4.494,0,8.882-0.453,13.123-1.312C236.791,345.403,214.178,318.855,214.178,287.023z" data-original="#E5BFA3" class=""/>
</g><path style="fill:#2E3B49" d="M327.484,218.19v33.134c0,2.695-1.091,5.133-2.855,6.896c-1.814,1.817-4.342,2.918-7.12,2.855  c-5.332-0.12-9.53-4.615-9.53-9.947v-5.009c0-3.969-1.607-7.557-4.209-10.157c-2.602-2.601-6.189-4.209-10.157-4.209  c-6.189,0-12.212,2.077-17.037,5.959c-6.256,5.032-14.21,8.047-22.87,8.047c-8.657,0-16.611-3.015-22.867-8.047  c-0.827-0.667-1.691-1.277-2.584-1.834c-0.01-0.01-0.023-0.017-0.033-0.023c-1.701-1.061-3.508-1.921-5.389-2.578  c-2.888-1.004-5.939-1.523-9.037-1.523c-7.93,0-14.36,6.44-14.36,14.373v5.203c0,2.692-1.091,5.133-2.858,6.896  c-1.764,1.764-4.202,2.855-6.896,2.855c-5.385,0-9.751-4.366-9.751-9.754v-33.134c0-29.013,23.516-52.532,52.529-52.532h42.492  C303.963,165.658,327.484,189.177,327.484,218.19z" data-original="#5C5E70" class="" data-old_color="#5C5E70"/><path style="fill:#252F3A" d="M266.621,165.657c-29.016,0-52.524,23.522-52.524,52.537v13.574  c-0.106-0.014-0.197-0.014-0.302-0.014c-7.937,0-14.363,6.439-14.363,14.376v5.191c0,2.694-1.091,5.139-2.852,6.899  c-1.774,1.761-4.205,2.852-6.899,2.852c-5.387,0-9.751-4.362-9.751-9.751v-33.128c0-29.016,23.509-52.537,52.525-52.537h34.166  V165.657z" data-original="#474A59" class="" data-old_color="#474A59"/><path style="fill:#FFFFFF;" d="M278.399,299.975c0,2.437-0.357,4.79-1.071,6.997c-1.029,3.403-2.836,6.492-5.211,9.034  c-4.307,4.685-10.505,7.606-17.355,7.606s-13.048-2.921-17.355-7.606c-2.374-2.542-4.181-5.631-5.211-9.034  c-0.715-2.206-1.071-4.559-1.071-6.997H278.399z" data-original="#FFFFFF" class=""/><g>
	<path style="fill:#2E3B49" d="M293.876,274.254c0-6.613-5.36-11.973-11.973-11.973s-11.973,5.36-11.973,11.973" data-original="#5C5E70" class="" data-old_color="#5C5E70"/>
	<path style="fill:#2E3B49" d="M237.483,274.254c0-6.613-5.36-11.973-11.973-11.973s-11.973,5.36-11.973,11.973" data-original="#5C5E70" class="" data-old_color="#5C5E70"/>
</g><path style="fill:#E5BFA3;" d="M424.552,164.624c0,14.556-11.793,26.349-26.349,26.349c-1.533,0-3.048-0.133-4.505-0.397  c-12.399-2.12-21.826-12.928-21.826-25.952c0-14.538,11.793-26.33,26.33-26.33c8.537,0,16.128,4.051,20.917,10.354  C422.526,153.078,424.552,158.605,424.552,164.624z" data-original="#E5BFA3" class=""/><path style="fill:#F9D6B9;" d="M424.552,164.624c0,14.556-11.793,26.349-26.349,26.349c-1.533,0-3.048-0.133-4.505-0.397  c-3.407-4.429-5.432-9.976-5.432-15.995c0-14.556,11.793-26.33,26.33-26.33c1.553,0,3.067,0.133,4.524,0.397  C422.526,153.078,424.552,158.605,424.552,164.624z" data-original="#F9D6B9" class=""/><g>
	<polyline style="fill:#252F3A" points="326.012,303.669 358.042,316.9 361.505,308.221 330.087,295.819  " data-original="#494B5B" class="" data-old_color="#494B5B"/>
	<path style="fill:#252F3A" d="M198.011,410.769v94.636c-3.803-0.878-7.576-1.849-11.306-2.894v-89.798l-39.79-99.714l11.755-0.313   l28.463,70.969l8.37,20.856L198.011,410.769z" data-original="#494B5B" class="" data-old_color="#494B5B"/>
</g><path style="fill:#FFD700" d="M260.641,33.103l12.219,24.758c1.126,2.282,3.303,3.864,5.822,4.23l27.322,3.971  c6.341,0.922,8.874,8.715,4.285,13.189l-19.77,19.271c-1.822,1.776-2.654,4.335-2.224,6.844l4.668,27.212  c1.084,6.316-5.546,11.133-11.219,8.151l-24.438-12.848c-2.253-1.184-4.943-1.184-7.196,0l-24.438,12.848  c-5.673,2.982-12.302-1.835-11.219-8.151l4.668-27.212c0.43-2.508-0.401-5.068-2.224-6.844l-19.77-19.271  c-4.589-4.473-2.056-12.267,4.285-13.189l27.322-3.971c2.518-0.366,4.696-1.948,5.822-4.23l12.219-24.758  C249.61,27.356,257.804,27.356,260.641,33.103z" data-original="#FFE461" class="active-path" data-old_color="#FFE461"/></g> </svg>
