<svg xmlns="http://www.w3.org/2000/svg" viewBox="0 0 24 24"><defs><style>.cls-1{fill:#0e1317;fill-rule:evenodd;}</style></defs><title>ic-security-unlocked</title><g id="Layer-132" data-name="Layer"><g id="Vrstva_310" data-name="Vrstva 310"><path class="cls-1" d="M20,7H8V4A3,3,0,0,0,5,1H2A1,1,0,0,0,2,3H5A1,1,0,0,1,6,4V7H4a3,3,0,0,0-3,3V20a3,3,0,0,0,3,3H20a3,3,0,0,0,3-3V10A3,3,0,0,0,20,7Zm1,13a1,1,0,0,1-1,1H4a1,1,0,0,1-1-1V10A1,1,0,0,1,4,9H20a1,1,0,0,1,1,1Z"/><path class="cls-1" d="M11.94,10.47A3,3,0,0,0,11,16.3v2.17a1,1,0,0,0,2,0v-2h0v-.2a3,3,0,0,0-1.06-5.79Zm0,2a1,1,0,1,1-1,1A1,1,0,0,1,11.94,12.47Z"/></g></g></svg>